<svg width="100" height="100" viewBox="0 0 100 100" fill="none" xmlns="http://www.w3.org/2000/svg">
<path d="M49.6667 9C44.1949 9 38.7768 10.0777 33.7215 12.1717C28.6663 14.2656 24.073 17.3348 20.2039 21.2039C12.3899 29.0179 8 39.616 8 50.6667C8 69.0833 19.9583 84.7083 36.5 90.25C38.5833 90.5833 39.25 89.2917 39.25 88.1667V81.125C27.7083 83.625 25.25 75.5417 25.25 75.5417C23.3333 70.7083 20.625 69.4167 20.625 69.4167C16.8333 66.8333 20.9167 66.9167 20.9167 66.9167C25.0833 67.2083 27.2917 71.2083 27.2917 71.2083C30.9167 77.5417 37.0417 75.6667 39.4167 74.6667C39.7917 71.9583 40.875 70.125 42.0417 69.0833C32.7917 68.0417 23.0833 64.4583 23.0833 48.5833C23.0833 43.9583 24.6667 40.25 27.375 37.2917C26.9583 36.25 25.5 31.9167 27.7917 26.2917C27.7917 26.2917 31.2917 25.1667 39.25 30.5417C42.5417 29.625 46.125 29.1667 49.6667 29.1667C53.2083 29.1667 56.7917 29.625 60.0833 30.5417C68.0417 25.1667 71.5417 26.2917 71.5417 26.2917C73.8333 31.9167 72.375 36.25 71.9583 37.2917C74.6667 40.25 76.25 43.9583 76.25 48.5833C76.25 64.5 66.5 68 57.2083 69.0417C58.7083 70.3333 60.0833 72.875 60.0833 76.75V88.1667C60.0833 89.2917 60.75 90.625 62.875 90.25C79.4167 84.6667 91.3333 69.0833 91.3333 50.6667C91.3333 45.1949 90.2556 39.7768 88.1617 34.7215C86.0677 29.6663 82.9986 25.073 79.1295 21.2039C75.2603 17.3348 70.667 14.2656 65.6118 12.1717C60.5566 10.0777 55.1384 9 49.6667 9Z" fill="black"/>
</svg>
