<svg id="icon__javascript" width="100" height="100" viewBox="0 0 100 100" fill="none" xmlns="http://www.w3.org/2000/svg">
<path d="M25 12.5C21.6848 12.5 18.5054 13.817 16.1612 16.1612C13.817 18.5054 12.5 21.6848 12.5 25V75C12.5 78.3152 13.817 81.4946 16.1612 83.8388C18.5054 86.183 21.6848 87.5 25 87.5H75C78.3152 87.5 81.4946 86.183 83.8388 83.8388C86.183 81.4946 87.5 78.3152 87.5 75V25C87.5 21.6848 86.183 18.5054 83.8388 16.1612C81.4946 13.817 78.3152 12.5 75 12.5H25ZM55.5583 66.8958C58.5583 69.3125 61.55 70.5 64.5417 70.4708C66.375 70.4708 67.7833 70.1375 68.7583 69.4625C69.2136 69.167 69.584 68.758 69.8331 68.2758C70.0823 67.7936 70.2015 67.2548 70.1792 66.7125C70.1852 66.121 70.0615 65.5354 69.8167 64.9969C69.572 64.4585 69.2121 63.9802 68.7625 63.5958C67.7833 62.7417 65.9333 61.8875 63.2125 61.0292C59.9458 60.0833 57.4208 58.8625 55.65 57.3625C53.9083 55.8625 53.025 53.7708 52.9917 51.0833C52.9917 48.5458 54.0917 46.425 56.2917 44.7125C58.4333 43.0042 61.1667 42.1458 64.5 42.1458C69.1417 42.1458 72.8708 43.275 75.6792 45.5375L72.4708 50.5333C71.3157 49.6348 69.9904 48.98 68.575 48.6083C67.303 48.1829 65.9743 47.9511 64.6333 47.9208C63.05 47.9208 61.7792 48.2125 60.8292 48.7917C59.8833 49.375 59.4125 50.1375 59.4125 51.0833C59.4125 52.125 59.9917 53.0083 61.15 53.7417C62.3167 54.4458 64.3 55.225 67.1083 56.0792C70.5 57.0875 72.9167 58.4333 74.35 60.1125C75.7875 61.7917 76.5042 63.9333 76.5042 66.5292C76.5042 69.1875 75.4833 71.4792 73.4333 73.4042C71.4167 75.3 68.4833 76.2917 64.6333 76.3833C59.5917 76.3833 55.375 74.8708 51.9833 71.8458L55.5583 66.8958ZM32.5167 69.5542C33.4958 70.1667 34.6708 70.4708 36.0458 70.4708C37.4833 70.4708 38.6708 70.0583 39.6208 69.2333C40.5667 68.3792 41.0417 66.8958 41.0417 64.7875V42.6958H47.2292V65.9792C47.1375 69.5833 46.1 72.1833 44.1125 73.7708C43.0281 74.693 41.7638 75.3797 40.4 75.7875C39.1368 76.1724 37.8247 76.3731 36.5042 76.3833C34.2125 76.3833 32.1792 75.9875 30.4083 75.1917C28.5125 74.3375 26.925 72.825 25.6417 70.6542L29.95 67.125C30.7417 68.1958 31.6 69.0042 32.5167 69.5542Z" fill="black"/>
</svg>
