<svg id="icon__react" width="100" height="100" viewBox="0 0 100 100" fill="none" xmlns="http://www.w3.org/2000/svg">
<path d="M50 42.125C54.2917 42.125 57.7917 45.625 57.7917 50C57.7917 54.1667 54.2917 57.7084 50 57.7084C45.7083 57.7084 42.2083 54.1667 42.2083 50C42.2083 45.625 45.7083 42.125 50 42.125ZM30.7083 83.3334C33.3333 84.9167 39.0833 82.5001 45.7083 76.2501C43.5417 73.7917 41.4167 71.125 39.4167 68.3334C36.059 68.0121 32.7209 67.5113 29.4167 66.8334C27.2917 75.7501 28.0833 81.8751 30.7083 83.3334ZM33.6667 59.4167L32.4583 57.2917C32 58.5001 31.5417 59.7084 31.25 60.875C32.375 61.125 33.625 61.3334 34.9167 61.5417L33.6667 59.4167ZM60.9167 56.2501L64.2917 50L60.9167 43.75C59.6667 41.5417 58.3333 39.5834 57.125 37.625C54.875 37.5 52.5 37.5 50 37.5C47.5 37.5 45.125 37.5 42.875 37.625C41.6667 39.5834 40.3333 41.5417 39.0833 43.75L35.7083 50L39.0833 56.2501C40.3333 58.4584 41.6667 60.4167 42.875 62.3751C45.125 62.5001 47.5 62.5001 50 62.5001C52.5 62.5001 54.875 62.5001 57.125 62.3751C58.3333 60.4167 59.6667 58.4584 60.9167 56.2501ZM50 28.25C49.2083 29.1667 48.375 30.125 47.5417 31.25H52.4583C51.625 30.125 50.7917 29.1667 50 28.25ZM50 71.75C50.7917 70.8334 51.625 69.8751 52.4583 68.7501H47.5417C48.375 69.8751 49.2083 70.8334 50 71.75ZM69.25 16.6667C66.6667 15.0834 60.9167 17.5 54.2917 23.75C56.4583 26.2084 58.5833 28.875 60.5833 31.6667C64 32 67.375 32.5 70.5833 33.1667C72.7083 24.25 71.9167 18.125 69.25 16.6667ZM66.3333 40.5834L67.5417 42.7084C68 41.5 68.4583 40.2917 68.75 39.1251C67.625 38.8751 66.375 38.6667 65.0833 38.4584L66.3333 40.5834ZM72.375 11.2084C78.5 14.7084 79.1667 23.9167 76.5833 34.6667C87.1667 37.7917 94.7917 42.9584 94.7917 50C94.7917 57.0417 87.1667 62.2084 76.5833 65.3334C79.1667 76.0834 78.5 85.2917 72.375 88.7917C66.2917 92.2917 58 88.2917 50 80.6667C42 88.2917 33.7083 92.2917 27.5833 88.7917C21.5 85.2917 20.8333 76.0834 23.4167 65.3334C12.8333 62.2084 5.20833 57.0417 5.20833 50C5.20833 42.9584 12.8333 37.7917 23.4167 34.6667C20.8333 23.9167 21.5 14.7084 27.5833 11.2084C33.7083 7.70838 42 11.7084 50 19.3334C58 11.7084 66.2917 7.70838 72.375 11.2084ZM71.1667 50C72.5833 53.125 73.8333 56.2501 74.875 59.4167C83.625 56.7917 88.5417 53.0417 88.5417 50C88.5417 46.9584 83.625 43.2084 74.875 40.5834C73.8333 43.75 72.5833 46.875 71.1667 50ZM28.8333 50C27.4167 46.875 26.1667 43.75 25.125 40.5834C16.375 43.2084 11.4583 46.9584 11.4583 50C11.4583 53.0417 16.375 56.7917 25.125 59.4167C26.1667 56.2501 27.4167 53.125 28.8333 50ZM66.3333 59.4167L65.0833 61.5417C66.375 61.3334 67.625 61.125 68.75 60.875C68.4583 59.7084 68 58.5001 67.5417 57.2917L66.3333 59.4167ZM54.2917 76.2501C60.9167 82.5001 66.6667 84.9167 69.25 83.3334C71.9167 81.8751 72.7083 75.7501 70.5833 66.8334C67.375 67.5001 64 68 60.5833 68.3334C58.5833 71.125 56.4583 73.7917 54.2917 76.2501ZM33.6667 40.5834L34.9167 38.4584C33.625 38.6667 32.375 38.8751 31.25 39.1251C31.5417 40.2917 32 41.5 32.4583 42.7084L33.6667 40.5834ZM45.7083 23.75C39.0833 17.5 33.3333 15.0834 30.7083 16.6667C28.0833 18.125 27.2917 24.25 29.4167 33.1667C32.7209 32.4888 36.059 31.988 39.4167 31.6667C41.4167 28.875 43.5417 26.2084 45.7083 23.75Z" fill="black"/>
</svg>
